<svg width="94" height="87" viewBox="0 0 94 87" fill="none" xmlns="http://www.w3.org/2000/svg">
<path opacity="0.3" d="M68 10.0615C60.8133 10.0615 53.8133 14.6815 51.3866 21.0749H42.66C40.1866 14.6815 33.1866 10.0615 26 10.0615C16.6666 10.0615 9.66663 17.0615 9.66663 26.3949C9.66663 39.8815 24.32 53.1815 46.5333 73.2949L47 73.7615L47.4666 73.2949C69.68 53.1815 84.3333 39.8815 84.3333 26.3949C84.3333 17.0615 77.3333 10.0615 68 10.0615Z" fill="#FF65BE" fill-opacity="0.5"/>
<path d="M68 0.728516C59.88 0.728516 52.0867 4.50852 47 10.4818C41.9134 4.50852 34.12 0.728516 26 0.728516C11.6267 0.728516 0.333374 12.0218 0.333374 26.3952C0.333374 44.0352 16.2 58.4085 40.2334 80.2485L47 86.3618L53.7667 80.2019C77.8 58.4085 93.6667 44.0352 93.6667 26.3952C93.6667 12.0218 82.3734 0.728516 68 0.728516ZM47.4667 73.2952L47 73.7618L46.5334 73.2952C24.32 53.1818 9.66671 39.8818 9.66671 26.3952C9.66671 17.0618 16.6667 10.0618 26 10.0618C33.1867 10.0618 40.1867 14.6818 42.66 21.0752H51.3867C53.8134 14.6818 60.8134 10.0618 68 10.0618C77.3334 10.0618 84.3334 17.0618 84.3334 26.3952C84.3334 39.8818 69.68 53.1818 47.4667 73.2952Z" fill="#FF65BE"/>
</svg>
